<?xml version="1.0" encoding="UTF-8"?>
<!-- Generator: Adobe Illustrator 19.0.0, SVG Export Plug-In . SVG Version: 6.00 Build 0)  -->
<svg version="1.1" id="svg1325" xmlns:sodipodi="http://sodipodi.sourceforge.net/DTD/sodipodi-0.dtd" xmlns:svg="http://www.w3.org/2000/svg" xmlns:rdf="http://www.w3.org/1999/02/22-rdf-syntax-ns#" xmlns:inkscape="http://www.inkscape.org/namespaces/inkscape" xmlns:cc="http://creativecommons.org/ns#" xmlns:dc="http://purl.org/dc/elements/1.1/" inkscape:output_extension="org.inkscape.output.svg.inkscape" inkscape:version="0.48.4 r" sodipodi:docname="Wikisource-logo-vi.svg" sodipodi:version="0.32" xmlns="http://www.w3.org/2000/svg" xmlns:xlink="http://www.w3.org/1999/xlink" x="0px" y="0px" viewBox="0 0 410 513" style="enable-background:new 0 0 410 513;" xml:space="preserve">
<style type="text/css">
	.st0{fill:#608AB4;}
	.st1{fill:#375493;}
	.st2{fill:#D6DDE3;}
	.st3{fill:#7BBCE5;}
	.st4{fill:#FFFFFF;}
	.st5{fill:#294584;}
	.st6{fill:#E0E9EA;}
	.st7{fill:#4D8AC0;}
	.st8{fill:#236798;}
</style>
<defs>
	
	
		<inkscape:perspective sodipodi:type="inkscape:persp3d" inkscape:vp_y="0 : 1000 : 0" inkscape:vp_z="410 : 215 : 1" inkscape:vp_x="0 : 215 : 1" id="perspective21" inkscape:persp3d-origin="205 : 143.33333 : 1">
		</inkscape:perspective>
	
		<inkscape:perspective sodipodi:type="inkscape:persp3d" inkscape:vp_y="0 : 1000 : 0" inkscape:vp_z="744.09448 : 526.18109 : 1" inkscape:vp_x="0 : 526.18109 : 1" id="perspective2458" inkscape:persp3d-origin="372.04724 : 350.78739 : 1">
		</inkscape:perspective>
	
		<inkscape:perspective sodipodi:type="inkscape:persp3d" inkscape:vp_y="0 : 1000 : 0" inkscape:vp_z="200 : 100 : 1" inkscape:vp_x="0 : 100 : 1" id="perspective2716" inkscape:persp3d-origin="100 : 66.666667 : 1">
		</inkscape:perspective>
	
		<inkscape:perspective sodipodi:type="inkscape:persp3d" inkscape:vp_y="0 : 1000 : 0" inkscape:vp_z="744.09448 : 526.18109 : 1" inkscape:vp_x="0 : 526.18109 : 1" id="perspective2534" inkscape:persp3d-origin="372.04724 : 350.78739 : 1">
		</inkscape:perspective>
	
		<inkscape:perspective sodipodi:type="inkscape:persp3d" inkscape:vp_y="0 : 1000 : 0" inkscape:vp_z="200 : 100 : 1" inkscape:vp_x="0 : 100 : 1" id="perspective97" inkscape:persp3d-origin="100 : 66.666667 : 1">
		</inkscape:perspective>
</defs>
<sodipodi:namedview bordercolor="#666666" inkscape:cy="153.73762" showgrid="false" fit-margin-top="0" borderopacity="1.0" fit-margin-left="0" showguides="true" inkscape:zoom="0.861235" inkscape:cx="205.28118" pagecolor="#ffffff" id="base" fit-margin-bottom="0" fit-margin-right="0" inkscape:window-maximized="1" inkscape:guide-bbox="true" inkscape:current-layer="layer2" inkscape:window-y="0" inkscape:window-x="0" inkscape:pageopacity="0.0" inkscape:pageshadow="2" inkscape:window-width="1440" inkscape:window-height="852">
	</sodipodi:namedview>
<g id="g3126" transform="translate(-3.13125e-5,1.7086299)">
	<g id="g2492" transform="matrix(1.005595,0,0,1.000506,-0.942714,-0.217568)">
		<path id="path1334" inkscape:connector-curvature="0" class="st0" d="M203.5,0.2c-67.9,0.5-128,36-164.7,90.2h332    c-37-54.6-97.6-90.2-166-90.2C204.4,0.2,203.9,0.2,203.5,0.2z"/>
		<path id="path2488" inkscape:connector-curvature="0" class="st1" d="M27,110C10.4,141.1,0.9,176.9,0.9,215.1    C0.9,333.7,92.3,430,204.8,430s203.8-96.3,203.8-214.9c0-38.2-9.4-74-26-105.1H27z"/>
		<path id="path2361" inkscape:connector-curvature="0" class="st2" d="M38.8,90.4c-4.3,6.3-8.2,12.8-11.8,19.6h355.6    c-3.6-6.8-7.6-13.3-11.8-19.6H38.8z"/>
		<path id="path2219" inkscape:connector-curvature="0" class="st3" d="M291.9,24.3c-0.8,0-1.8,0.2-2.7,0.5    c-9.1,14.6-9.1,62.8-8.9,73.3c0,0,0,0,0.1,0c13.4,3,31.2-0.4,31.8-13.4c1-17,2.1-33.6-6.9-44.2c-8.2,3.8-6.7-11.5-10-14.9    C294.4,24.7,293.2,24.3,291.9,24.3z"/>
		<path id="path2230" inkscape:connector-curvature="0" class="st4" d="M289.2,24.8c-4.8,1.5-10.6,5.8-13.5,7.3    c-2.5,0.3-7.2,0.1-10.6,1c-7.5,1.9-14.2,6.5-18.2,13.7c-5.1-14.8-15.9,3.4-28.8,13.8c-7.1-5.4-21.5-16.2-34.7-23.1    c-10.6,5.4-21.7,23.6-28.3,25.2c-6.9,1.3-16.5,0.5-20.5,5.4c-6.7,6.9-8.7,14.9-10,22.3c15.7,5.6,32.1,5.7,47.8,3.6    c8.9-2.1,15.2,0.9,24.4,0.5c27.8,1.2,57.9-2.2,83.4,3.6C280.1,87.7,280.1,39.4,289.2,24.8z"/>
		<path id="path2221" sodipodi:nodetypes="cccccc" inkscape:connector-curvature="0" class="st3" d="M196.3,53.9    c3.3,10.1,6.2,20.2,5.1,30.3c-1.2,6.3,1.5,5.8,6.4,3.3c4.9-2.7,7.5-5.6,14.6-8c5.6-1.5,1.6-5.7-1-8.5    C213.5,63.6,204.9,58.8,196.3,53.9L196.3,53.9z"/>
		<path id="path2364" inkscape:connector-curvature="0" class="st5" d="M224.8,110c5.9,77.8,58.1,87.3,91,71.6    c-16.4-16.3-10.5-49.4,7.1-49.8c32.5-0.8,23.2,59.8,23.2,89.3c17.7-3.6,16.6-70.7,12.8-111.1H224.8z"/>
		
			<path id="path2370" sodipodi:nodetypes="cccccccccccccccccccccccccccccssssssssssscccccc" inkscape:connector-curvature="0" class="st6" d="    M56.7,110c0.6,6.7,1.3,13.4,1.9,20.1c4.3,7.9,7.5,15.7,6.6,23.6c8.5-2.1,13.5-3.2,18.1,5.5c20,12.4,38.9,13.9,57.6,12.1    c3.8,45.1,2.7,81.5,1.1,135.4c11.3,18.8,22.7,36.7,34,55.5c6.5,11.4,17.9,15.1,26.9,1.5c7.7-3.5,15.3-6.9,23-10.4    c0,3.8,0,7.7,0,11.5c11.8,3,23.4,7.5,18.1,19.8c-4.1,7.9-1.8,11.5,9.8,6.2c10.2-5,16.6,2.7,21.9,4.1c-7.6-8.1-1.1-24.1-0.8-40.6    c10.9-1,23.4-10.9,34.4-11.9c22.5-21.8,26.4-29.9,26.3-58.1c2.3-7.3,5.5-9.2,3.8-21.9c1.3-7.9,3.1-18.1,4.3-26    c0.9-5.1,1.7-10.2,2.6-15.2c-0.1,0-0.1,0-0.2,0c0-29.4,9.2-90-23.2-89.3c-17.5,0.4-23.5,33.5-7.1,49.8c-3.8,1.8-7.9,3.3-12.1,4.4    c1.3,7.7-4.2,15.5-11.5,15.9c-7.2-0.6-17.9,6.5-24.7,23c-10.8,22.8-20.6,3-24.6-3.2c-5.1-6.7,1.2-13-12.7-8.9    c-9.1,2.8-20.8,4.7-23.5-9.1c-11.7-11.9-22.9-22.3-34.6-34.2c-4.7-5.6-0.8-10.1-0.8-12.1c0,0,0-0.1,0-0.2c0,0,0,0,0,0    c0,0,0-0.1,0-0.1c0,0,0-0.1,0-0.1c0,0,0-0.1-0.1-0.1c0,0,0-0.1,0-0.1c0,0,0,0,0,0c0,0-0.1-0.1-0.1-0.1c0,0-0.1-0.1-0.1-0.1    c0,0,0,0-0.1,0c-0.1,0-0.1,0-0.2-0.1c-4.6-2.9-10.1,0.6-16.1,3.1c-15.7,2.9-21.9,0.1-23.6-8.2c0.1-13.8-7.6-12.3-20.3-10.4    c-36.4,5.2-42.3-7.7-52.9-31.1H56.7z"/>
		<path id="path2383" inkscape:connector-curvature="0" class="st7" d="M57.8,110c10.6,23.4,16.5,36.3,52.9,31.1    c12.6-1.9,20.4-3.3,20.3,10.4c1.7,8.3,7.9,11.1,23.6,8.2c6-2.5,11.6-6,16.1-3.1c0.1,0,0.1,0,0.2,0.1c0,0,0,0,0.1,0    c0,0,0.1,0.1,0.1,0.1c0,0,0.1,0.1,0.1,0.1c0,0,0,0,0,0c0,0,0,0.1,0,0.1c0,0,0,0.1,0.1,0.1c0,0,0,0.1,0,0.1c0,0,0,0.1,0,0.1    c0,0,0,0,0,0c0,0,0,0.1,0,0.2c0,2-3.9,6.5,0.8,12.1c11.7,11.9,22.9,22.3,34.6,34.2c2.8,13.8,14.4,12,23.5,9.1    c13.9-4.1,7.7,2.2,12.7,8.9c3.9,6.1,13.8,25.9,24.6,3.2c6.8-16.5,17.4-23.7,24.7-23c7.3-0.3,12.8-8.2,11.5-15.9    c-32.3,8.2-73.7-7.3-78.9-76L57.8,110L57.8,110z"/>
		<path id="path2398" inkscape:connector-curvature="0" class="st2" d="M166.9,199.4c-10.5,0.7-5,35.8-3.9,52.4    c1.6,16.4,5.2,12.5,16.6,5.4c5.3,10.7,2.1,16.6-5.4,23.5c-5.5,5.2-8.7,13-3.9,22c1.5,2.4,2.7,3.5,4.4,7.3c1.1,2.3,2.3,4.6,3.4,6.9    c1.3,5.1-0.2,8.2-2.4,10.9c-2,2.9-2.4,5.9,0.2,14c1.4,4.7-2.5,10.3,3.6,15.3c2.7,2.1,5.4,3.7,8.1,4.9c-2.4-6.9-2.4-16.9-1.3-25.4    c0.8-8.1,1.3-13.1,8.7-18.6c6.4-3.3,4.6-20.7,5.2-31c0.1,0.1,0.2,0.1,0.2,0.2c0,0,0-0.1,0-0.2c13.7-2.9,6.1-13.9,1.9-24.4    l-33.6-62.9c-0.7-0.2-1.3-0.3-1.8-0.3C167,199.4,167,199.4,166.9,199.4z"/>
		<path id="path2404" inkscape:connector-curvature="0" class="st0" d="M168.9,199.6l33.6,62.9c4.2,10.6,11.9,21.5-1.9,24.4    c1.2,7.4,10.3,13.8,20.4,12.9c10.5-0.7,18.2,7.2,21.6,15.1c0.5-8.8,1.5-17.4,3.7-26c1.4-4.2,9.1-8,2.7-13.7    c-25.9-28.5-50.9-50.9-78.9-75.2C169.7,199.9,169.3,199.7,168.9,199.6z"/>
		<path id="path2407" inkscape:connector-curvature="0" class="st8" d="M200.4,286.9c-0.5,10.3,1.2,27.7-5.2,31    c-7.4,5.5-7.9,10.5-8.7,18.6c-1.2,8.6-1.1,18.5,1.3,25.4c2.4,1,4.9,1.7,7.6,2.2c4.4,0.4,7.2,1.5,16.6-0.2c8.2-0.9,13.1-5,22.5-6.4    c5.1-1,8.6-3,8.3-10.8c-0.4-10.7-0.7-21.3-0.2-31.8c-3.5-7.9-11.1-15.8-21.6-15.1c-10,0.9-19-5.4-20.4-12.7c0,0,0,0,0,0    c0,0,0,0,0,0C200.6,287.1,200.5,287,200.4,286.9L200.4,286.9z"/>
		<path id="path2460" sodipodi:nodetypes="ccccccccssssscccccsssssssccccc" inkscape:connector-curvature="0" class="st0" d="    M338.5,276.5c-0.9,2.4-2,4.5-2.9,7.6c0,28.2-3.8,36.3-26.3,58.1c-0.2,0.1-6.6,15.1-12.1,19.1c-9.2,6.8-8.6,13-12.1,20.4    c-2.5,3.8-5.9,4.4-8.4,3.7c-1.5-1.2-3.1-1.8-4.7-3.7c-0.1,3,0.1,5.8,0.9,8.3c0,0.1,0.1,0.1,0.1,0.2c0,0,0,0,0,0    c0.4,0.9,0.8,1.8,1.3,2.7c0,0,0,0.1,0.1,0.1c0,0,0,0,0,0c0.4,0.6,0.8,1.1,1.3,1.7c-0.1,0-0.3-0.1-0.4-0.1    c9.4,15.1,22.8,19.8,39.9,13.9c9.2-4,14.6-7.7,20.3-12c5-4.7,10.9-13.6,1.6-14.2c-1.3-0.4-2.1-0.7-2.4-1.1c0,0-0.1,0-0.1-0.1    c0,0-0.1-0.1-0.1-0.2c0-0.1-0.1-0.2-0.1-0.2c0,0,0,0,0-0.1c0,0,0-0.1,0-0.1c0,0,0-0.1,0-0.1c0-1.3,2.6-3.3,0.6-7.2    c-1.3-6,4.3-11.6,8.4-13.1c-2.8-6.1-5.6-12.2-8.4-18.3c0.2-4,8.1-6.1,6.8-13.6C343.9,309.5,347,281.5,338.5,276.5L338.5,276.5z"/>
		<path id="path2468" inkscape:connector-curvature="0" class="st8" d="M288,202.3c-6.8,1.8-14.9,9.1-20.5,22.6    c-2.5,5.3-5,8.3-7.4,9.7c0.2,23.2,5.8,39.8,17.2,48.9c-3.4,13.5-6.8,32-0.6,43.2c-10.4-3.3-6.1,17.6-9.2,26.4    c-5.2,14.6-9.8,14-14.6,15.3c4.4,5.1,10.2,10.5,18.8,13.7c0,0,0,0,0,0.1c0,0.1,0.1,0.2,0.1,0.3c0.6,1,3.5,2,4.9,3.1    c2.5,0.7,5.9,0.1,8.4-3.7c3.4-7.4,2.8-13.6,12.1-20.4c5.3-3.8,11.6-18.3,12.1-19.1c-18.2-10.2-26.9-29.8-23.9-48.6    c0.8-5.2,4.2-11-0.3-19.4C279.6,251.3,283,224.6,288,202.3z"/>
	</g>
</g>
<g id="layer2" transform="translate(-10.208643,-8.4999818)" inkscape:label="SVG" inkscape:groupmode="layer">
	<g id="text3347">
		<path id="path3263" inkscape:connector-curvature="0" d="M101.9,465.5c0,0.3-0.1,0.6-0.3,0.9c-0.2,0.3-0.4,0.4-0.6,0.4    c-2,0.2-3.6,0.8-4.8,1.9c-1.3,1.1-2.5,3.1-3.9,6.2l-20.4,46c-0.1,0.4-0.5,0.6-1.1,0.6c-0.5,0-0.9-0.2-1.1-0.6l-11.4-23.9L45,520.9    c-0.3,0.4-0.6,0.6-1.1,0.6c-0.6,0-1-0.2-1.2-0.6l-20-46c-1.3-2.9-2.6-4.8-4-6c-1.4-1.1-3.3-1.9-5.8-2.1c-0.2,0-0.4-0.1-0.6-0.3    c-0.2-0.2-0.3-0.5-0.3-0.8c0-0.7,0.2-1.1,0.6-1.1c1.8,0,3.7,0.1,5.6,0.2c1.8,0.2,3.5,0.2,5.1,0.2c1.6,0,3.5-0.1,5.8-0.2    c2.3-0.2,4.4-0.2,6.2-0.2c0.4,0,0.6,0.4,0.6,1.1c0,0.7-0.1,1.1-0.4,1.1c-1.8,0.1-3.2,0.6-4.2,1.4c-1,0.8-1.5,1.8-1.5,3    c0,0.6,0.2,1.4,0.6,2.4L47,511l9.4-17.8l-8.8-18.4c-1.6-3.3-2.9-5.4-3.9-6.3c-1-1-2.5-1.5-4.6-1.8c-0.2,0-0.4-0.1-0.6-0.3    c-0.2-0.2-0.2-0.5-0.2-0.8c0-0.7,0.2-1.1,0.6-1.1c1.8,0,3.4,0.1,4.9,0.2c1.4,0.2,3,0.2,4.6,0.2c1.6,0,3.3-0.1,5.1-0.2    c1.8-0.2,3.7-0.2,5.4-0.2c0.4,0,0.6,0.4,0.6,1.1c0,0.7-0.1,1.1-0.4,1.1c-3.6,0.2-5.4,1.3-5.4,3c0,0.8,0.4,2,1.2,3.7l5.8,11.8    l5.8-10.8c0.8-1.5,1.2-2.8,1.2-3.8c0-2.5-1.8-3.8-5.4-3.9c-0.3,0-0.5-0.4-0.5-1.1c0-0.3,0.1-0.5,0.2-0.8c0.2-0.2,0.3-0.4,0.5-0.4    c1.3,0,2.9,0.1,4.7,0.2c1.8,0.2,3.3,0.2,4.4,0.2c0.8,0,2-0.1,3.6-0.2c2-0.2,3.7-0.3,5.1-0.3c0.3,0,0.5,0.3,0.5,1    c0,0.9-0.3,1.3-0.9,1.3c-2.1,0.2-3.8,0.8-5,1.7c-1.3,0.9-2.8,3.1-4.7,6.4l-7.7,14.2l10.4,21.2l15.4-35.7c0.5-1.3,0.8-2.5,0.8-3.6    c0-2.6-1.8-4-5.4-4.2c-0.3,0-0.5-0.4-0.5-1.1c0-0.7,0.2-1.1,0.7-1.1c1.3,0,2.9,0.1,4.6,0.2c1.7,0.2,3,0.2,4.2,0.2    c1.2,0,2.5-0.1,4.1-0.2c1.6-0.2,3-0.2,4.3-0.2C101.8,464.6,101.9,464.9,101.9,465.5"/>
		<path id="path3265" inkscape:connector-curvature="0" d="M113.4,519.3c0,0.5-0.1,0.8-0.4,0.8c-1.3,0-2.7-0.1-4.5-0.2    c-1.6-0.1-3-0.2-4.2-0.2c-1.1,0-2.5,0.1-4.2,0.2c-1.7,0.1-3.2,0.2-4.5,0.2c-0.3,0-0.4-0.3-0.4-0.8c0-0.5,0.1-0.7,0.4-0.8    c2.3-0.3,3.8-0.7,4.6-1.3c0.8-0.6,1.2-1.7,1.2-3.5v-26.3c0-1.3-0.2-2.2-0.5-2.7c-0.3-0.5-0.9-1-1.7-1.3c-0.8-0.3-2-0.6-3.6-0.8    c-0.3,0-0.4-0.3-0.4-0.8c0-0.5,0.1-0.8,0.4-0.8c1.3,0,2.8,0.1,4.5,0.2c1.6,0.1,3,0.2,4.2,0.2c1.1,0,2.5-0.1,4.2-0.2    c1.7-0.1,3.2-0.2,4.5-0.2c0.3,0,0.4,0.3,0.4,0.8c0,0.5-0.1,0.8-0.4,0.8c-1.6,0.2-2.8,0.4-3.6,0.8c-0.8,0.3-1.4,0.7-1.7,1.2    c-0.3,0.5-0.5,1.4-0.5,2.8v26.3c0,1.3,0.2,2.2,0.5,2.7c0.3,0.5,0.9,0.9,1.7,1.3c0.8,0.3,2,0.5,3.6,0.7    C113.2,518.6,113.4,518.8,113.4,519.3"/>
		<path id="path3267" inkscape:connector-curvature="0" d="M160.7,519.3c0,0.5-0.1,0.8-0.4,0.8c-1.3,0-2.7-0.1-4.5-0.2    c-1.7-0.1-3.1-0.2-4.2-0.2c-1.1,0-2.6,0.1-4.6,0.2c-2,0.1-3.7,0.2-4.9,0.2c-0.3,0-0.4-0.3-0.4-0.8c0-0.5,0.1-0.7,0.4-0.8    c2.5-0.3,3.8-0.9,3.8-1.8c0-0.5-0.4-1.2-1.2-2l-11.1-11.3c-0.6-0.6-1.1-1-1.6-1.2c-0.4-0.2-1-0.3-1.8-0.3v11.9    c0,1.3,0.2,2.2,0.5,2.7c0.3,0.5,0.9,0.9,1.7,1.3c0.8,0.3,2,0.5,3.6,0.7c0.3,0,0.5,0.3,0.5,0.8c0,0.5-0.1,0.8-0.4,0.8    c-1.3,0-2.7-0.1-4.5-0.2c-1.7-0.1-3.1-0.2-4.2-0.2c-1.1,0-2.5,0.1-4.1,0.2c-1.7,0.1-3.2,0.2-4.5,0.2c-0.3,0-0.4-0.3-0.4-0.8    c0-0.5,0.1-0.7,0.4-0.8c2.3-0.3,3.8-0.7,4.6-1.3c0.8-0.6,1.2-1.7,1.2-3.5v-26.3c0-1.3-0.2-2.2-0.5-2.7c-0.3-0.5-0.9-1-1.7-1.3    c-0.8-0.3-2-0.6-3.6-0.8c-0.3,0-0.4-0.3-0.4-0.8c0-0.5,0.1-0.8,0.4-0.8c1.3,0,2.7,0.1,4.5,0.2c1.6,0.1,3,0.2,4.1,0.2    c1.1,0,2.5-0.1,4.2-0.2c1.7-0.1,3.2-0.2,4.5-0.2c0.3,0,0.4,0.3,0.4,0.8c0,0.5-0.1,0.8-0.4,0.8c-1.6,0.2-2.8,0.4-3.6,0.8    c-0.8,0.3-1.4,0.7-1.7,1.3c-0.3,0.5-0.5,1.4-0.5,2.7v12.7c0.7,0,1.3-0.1,1.8-0.3c0.4-0.2,1-0.6,1.6-1.2l12.3-12.1    c1-1,1.5-1.6,1.5-2.1c0-0.5-0.2-0.9-0.7-1.1c-0.5-0.3-1.4-0.5-2.9-0.7c-0.3,0-0.4-0.3-0.4-0.8c0-0.5,0.2-0.8,0.5-0.8    c0.9,0,2,0.1,3.5,0.2c1.5,0.1,2.8,0.2,3.8,0.2c1,0,2.1-0.1,3.4-0.2c1-0.1,1.9-0.1,2.6-0.1c0.3,0,0.4,0.3,0.4,0.8    c0,0.5-0.1,0.8-0.4,0.8c-1.8,0.2-3.2,0.6-4.2,1.1c-1,0.5-2.3,1.4-3.7,2.8l-12.8,12.2l15.9,16.1c1.1,1.2,2.2,2,3.2,2.5    c1.1,0.5,2.7,0.9,4.8,1.1C160.6,518.6,160.7,518.8,160.7,519.3"/>
		<path id="path3269" inkscape:connector-curvature="0" d="M182.3,519.3c0,0.5-0.1,0.8-0.4,0.8c-1.3,0-2.7-0.1-4.5-0.2    c-1.6-0.1-3-0.2-4.2-0.2c-1.1,0-2.5,0.1-4.2,0.2c-1.7,0.1-3.2,0.2-4.5,0.2c-0.3,0-0.4-0.3-0.4-0.8c0-0.5,0.1-0.7,0.4-0.8    c2.3-0.3,3.8-0.7,4.6-1.3c0.8-0.6,1.2-1.7,1.2-3.5v-26.3c0-1.3-0.2-2.2-0.5-2.7c-0.3-0.5-0.9-1-1.7-1.3c-0.8-0.3-2-0.6-3.6-0.8    c-0.3,0-0.4-0.3-0.4-0.8c0-0.5,0.1-0.8,0.4-0.8c1.3,0,2.8,0.1,4.5,0.2c1.6,0.1,3,0.2,4.2,0.2c1.1,0,2.5-0.1,4.2-0.2    c1.7-0.1,3.2-0.2,4.5-0.2c0.3,0,0.4,0.3,0.4,0.8c0,0.5-0.1,0.8-0.4,0.8c-1.6,0.2-2.8,0.4-3.6,0.8c-0.8,0.3-1.4,0.7-1.7,1.2    c-0.3,0.5-0.5,1.4-0.5,2.8v26.3c0,1.3,0.2,2.2,0.5,2.7c0.3,0.5,0.9,0.9,1.7,1.3c0.8,0.3,2,0.5,3.6,0.7    C182.1,518.6,182.3,518.8,182.3,519.3"/>
		<path id="path3271" inkscape:connector-curvature="0" d="M211.9,508.8c0,3.7-1.1,6.7-3.3,8.9c-2.2,2.2-5.2,3.3-8.9,3.3    c-1.7,0-3.6-0.3-6-0.9c-2.1-0.6-3.8-0.8-5.2-0.8c-0.1-3.2-0.3-6.3-0.7-9.5c0-0.3,0.3-0.4,0.8-0.4c0.4,0,0.6,0.1,0.7,0.4    c1,3.5,2.3,5.9,3.9,7.3c1.6,1.4,3.8,2.1,6.6,2.1c2.3,0,4-0.7,5.2-2c1.3-1.3,1.9-3.1,1.9-5.5c0-1.5-0.5-2.9-1.6-4.2    c-1.1-1.3-3.4-3-6.9-5c-4.1-2.3-6.7-4.3-8-5.9c-1.3-1.6-1.9-3.4-1.9-5.4c0-3,1.1-5.6,3.4-7.7c2.3-2.1,5.1-3.2,8.6-3.2    c1.3,0,2.8,0.2,4.5,0.5c1.6,0.3,3,0.5,4.1,0.5c0.2,3.3,0.5,6.2,0.9,8.7c0,0.3-0.2,0.4-0.7,0.4c-0.5,0-0.8-0.1-0.9-0.4    c-0.6-2.8-1.5-4.8-2.8-6c-1.3-1.2-3-1.8-5.2-1.8c-2.1,0-3.8,0.6-5,1.8c-1.2,1.2-1.8,2.9-1.8,5c0,1.3,0.5,2.6,1.5,3.8    c1,1.2,3.3,2.8,6.7,4.8c4.1,2.4,6.8,4.4,8,6C211.2,505.1,211.9,506.9,211.9,508.8"/>
		<path id="path3273" inkscape:connector-curvature="0" d="M257.7,500.8c0,5.9-1.9,10.8-5.7,14.5c-3.8,3.8-8.8,5.6-14.9,5.6    c-6.1,0-11.1-1.9-14.9-5.6c-3.8-3.8-5.7-8.6-5.7-14.5c0-5.9,1.9-10.8,5.7-14.7c3.8-3.9,8.8-5.8,14.9-5.8c6.1,0,11.1,1.9,14.9,5.8    C255.8,490,257.7,494.9,257.7,500.8 M251.6,500.8c0-5.5-1.3-10-4-13.5c-2.7-3.5-6.1-5.2-10.5-5.2c-4.3,0-7.8,1.7-10.5,5.2    c-2.6,3.5-3.9,8-3.9,13.5c0,5.5,1.3,9.9,3.9,13.3c2.6,3.4,6.1,5.1,10.5,5.1c4.4,0,7.9-1.7,10.5-5.1    C250.2,510.7,251.6,506.3,251.6,500.8"/>
		<path id="path3275" inkscape:connector-curvature="0" d="M303.3,481.9c0,0.5-0.1,0.8-0.4,0.8c-2.4,0.3-3.9,0.7-4.7,1.3    c-0.8,0.6-1.2,1.7-1.2,3.4V505c0,5-1.2,8.9-3.6,11.7c-2.4,2.8-5.8,4.2-10.2,4.2c-5,0-8.9-1.3-11.7-4c-2.8-2.7-4.2-6.4-4.2-11    v-18.5c0-1.3-0.2-2.2-0.5-2.7c-0.3-0.5-0.9-1-1.7-1.3c-0.8-0.3-2-0.6-3.6-0.8c-0.3,0-0.4-0.3-0.4-0.8c0-0.5,0.1-0.8,0.4-0.8    c1.3,0,2.7,0.1,4.5,0.2c1.6,0.1,3,0.2,4.2,0.2c1.1,0,2.5-0.1,4.2-0.2c1.7-0.1,3.2-0.2,4.5-0.2c0.3,0,0.4,0.3,0.4,0.8    c0,0.5-0.1,0.8-0.4,0.8c-1.6,0.2-2.8,0.4-3.6,0.8c-0.8,0.3-1.4,0.7-1.7,1.3c-0.3,0.5-0.5,1.4-0.5,2.7v17.7c0,4.6,0.9,8,2.6,10.1    c1.7,2.1,4.6,3.2,8.5,3.2c7.4,0,11.1-4.7,11.1-14v-17c0-1.7-0.4-2.9-1.3-3.5c-0.8-0.6-2.4-1-4.7-1.3c-0.3,0-0.4-0.3-0.4-0.8    c0-0.5,0.1-0.8,0.4-0.8c0.9,0,2,0.1,3.4,0.2c1.4,0.1,2.6,0.2,3.5,0.2c0.9,0,2-0.1,3.4-0.2c1.4-0.1,2.5-0.2,3.5-0.2    C303.2,481.1,303.3,481.4,303.3,481.9"/>
		<path id="path3277" inkscape:connector-curvature="0" d="M344.6,519.3c0,0.5-0.1,0.8-0.4,0.8c-0.7,0-1.8-0.1-3.4-0.2    c-1.1-0.1-1.9-0.1-2.3-0.1c-0.5,0-1.4,0.1-2.5,0.2c-1.2,0.1-2,0.2-2.5,0.2l-8.5-13.8c-1.2-1.9-2.2-3.1-2.9-3.7    c-0.7-0.5-2.2-0.8-4.4-0.8v12c0,1.3,0.2,2.2,0.5,2.7c0.3,0.5,0.9,0.9,1.7,1.3c0.8,0.3,2,0.5,3.6,0.7c0.3,0,0.5,0.3,0.5,0.8    c0,0.5-0.1,0.8-0.4,0.8c-1.3,0-2.7-0.1-4.5-0.2c-1.7-0.1-3.1-0.2-4.2-0.2s-2.5,0.1-4.2,0.2c-1.7,0.1-3.2,0.2-4.5,0.2    c-0.3,0-0.4-0.3-0.4-0.8c0-0.5,0.1-0.7,0.4-0.8c1.5-0.2,2.7-0.4,3.6-0.7c0.8-0.3,1.4-0.7,1.7-1.3c0.3-0.5,0.5-1.4,0.5-2.7v-26.3    c0-1.3-0.2-2.2-0.5-2.7c-0.3-0.5-0.9-1-1.7-1.3c-0.8-0.3-2-0.6-3.6-0.8c-0.3,0-0.4-0.3-0.4-0.8c0-0.5,0.1-0.8,0.4-0.8    c1.3,0,2.7,0.1,4.5,0.2c1.6,0.1,3,0.2,4.2,0.2c1.1,0,2.5-0.1,4.2-0.2c1.7-0.1,3.2-0.2,4.5-0.2c4.2,0,7.4,0.9,9.7,2.7    c2.3,1.8,3.4,4.2,3.4,7.4c0,2-0.8,3.9-2.4,5.6c-1.6,1.7-3.7,3-6.4,4l9,13.8c0.7,1.2,1.7,2.1,2.9,2.7c1.2,0.6,2.7,1,4.6,1.2    C344.4,518.6,344.6,518.8,344.6,519.3 M330.3,491.2c0-5.5-2.4-8.2-7.1-8.2c-1.6,0-2.8,0.1-3.6,0.4c-0.8,0.2-1.3,0.6-1.6,1.2    c-0.3,0.5-0.4,1.5-0.4,2.9v12.5c1.1,0.1,2.4,0.2,4.1,0.2c3,0,5.2-0.7,6.6-2.1C329.6,496.6,330.3,494.3,330.3,491.2"/>
		<path id="path3279" inkscape:connector-curvature="0" d="M380.6,509.7c-0.7,3-1.3,6.2-2,9.5c-1.1,0-3,0.3-5.8,0.8    c-3.6,0.7-6.2,1-8,1c-4.3,0-8-0.8-11.2-2.5s-5.7-4.1-7.5-7.2c-1.8-3.1-2.7-6.6-2.7-10.4c0-3.8,0.9-7.2,2.8-10.4    c1.9-3.2,4.5-5.7,7.8-7.4c3.3-1.8,7.1-2.7,11.2-2.7c1.8,0,4.1,0.2,7.1,0.6c2.3,0.3,4,0.4,5,0.4c0.2,2.6,0.7,5.8,1.3,9.5    c0,0.3-0.3,0.4-0.9,0.4c-0.4,0-0.6-0.1-0.7-0.4c-0.7-2.5-2.1-4.6-4.3-6.3c-2.2-1.6-4.8-2.5-7.7-2.5c-4.4,0-8.1,1.8-11.1,5.4    c-3,3.6-4.5,8.1-4.5,13.3c0,5.1,1.5,9.4,4.4,13c2.9,3.6,6.6,5.3,10.8,5.3c6.7,0,11.4-3.2,14.2-9.5c0.1-0.3,0.4-0.4,0.8-0.4    C380.4,509.3,380.6,509.4,380.6,509.7"/>
		<path id="path3281" inkscape:connector-curvature="0" d="M417.9,510.8c-1.5,3.2-2.7,6.3-3.7,9.2c-7-0.2-12-0.3-15-0.3    c-2.9,0-8,0.1-15,0.3c-0.3,0-0.4-0.3-0.4-0.8c0-0.5,0.1-0.7,0.4-0.8c1.5-0.2,2.7-0.4,3.6-0.7c0.8-0.3,1.4-0.7,1.7-1.3    c0.3-0.5,0.5-1.4,0.5-2.7v-26.3c0-1.3-0.2-2.2-0.5-2.7c-0.3-0.5-0.9-1-1.7-1.3c-0.8-0.3-2-0.6-3.6-0.8c-0.3,0-0.4-0.3-0.4-0.8    c0-0.5,0.1-0.8,0.4-0.8c4.7,0.2,9.5,0.3,14.4,0.3c5,0,9.8-0.1,14.5-0.3c0.4,2.9,1.1,5.7,1.9,8.6c0,0.4-0.3,0.6-1,0.6    c-0.3,0-0.5-0.1-0.6-0.4c-1.4-4.4-4.3-6.6-8.8-6.6h-5.7c-2.2,0-3.2,1.1-3.2,3.4v12.5h7.1c1.9,0,3.1-0.4,3.8-1.3    c0.7-0.9,1.1-2.4,1.4-4.6c0-0.3,0.3-0.4,0.8-0.4c0.5,0,0.8,0.1,0.8,0.4c0,0.9-0.1,2.1-0.2,3.5c-0.1,1.4-0.2,2.5-0.2,3.3    c0,0.9,0.1,2,0.2,3.4c0.1,1.5,0.2,2.7,0.2,3.6c0,0.3-0.3,0.4-0.8,0.4c-0.5,0-0.8-0.1-0.8-0.4c-0.3-2.3-0.8-3.9-1.5-4.8    c-0.7-0.9-1.9-1.4-3.7-1.4h-7.1v13.8c0,2.2,1.1,3.3,3.2,3.3h6.1c2.2,0,4.4-0.7,6.6-2.2c2.2-1.5,3.8-3.3,4.8-5.4    c0.1-0.2,0.2-0.3,0.5-0.3c0.3,0,0.5,0.1,0.7,0.2C417.8,510.5,417.9,510.6,417.9,510.8"/>
	</g>
</g>
</svg>